# xmcd
#
# Track frame offsets:
#   150
#   15592
#   34527
#   53740
#   71178
#   81982
#   94840
#   109476
#   126627
#   140970
#   158546
#   171527
#   187214
#   206216
#   225986
#   242599
#   256311
#   271379
#
# Disc length: 3836 seconds
#
# Revision: 0
# Processed by: cddbd v1.5.1PL0 Copyright (c) Steve Scherf et al.
# Submitted via: Media_Universe 3.0
#
DISCID=100efa12
DTITLE=Kenny Rogers - Kenny Rogers
DYEAR=1900
DGENRE=Country
TTITLE0=Daytime Friends
TTITLE1=Islands In The Stream
TTITLE2=We've Got Tonight
TTITLE3=Something's Burning
TTITLE4=She Even Woke Me Up To Say Goodbye
TTITLE5=Sleep Comes Easy
TTITLE6=But You Know I Love You
TTITLE7=Buy Me A Rose
TTITLE8=I Am The Greatest
TTITLE9=Lady
TTITLE10=Love Or Something Like It
TTITLE11=My Washington Woman
TTITLE12=She Believes In Me
TTITLE13=Through The Years
TTITLE14=Don't Fall In Love With A Dreamer
TTITLE15=Every Time Two Fools Collide
TTITLE16=Just Dropped In
TTITLE17=You Decorated My Life
EXTD=
EXTT0=
EXTT1=
EXTT2=
EXTT3=
EXTT4=
EXTT5=
EXTT6=
EXTT7=
EXTT8=
EXTT9=
EXTT10=
EXTT11=
EXTT12=
EXTT13=
EXTT14=
EXTT15=
EXTT16=
EXTT17=
PLAYORDER=
